<?xml version="1.0" encoding="UTF-8" standalone="no"?>
<svg width="256px" height="174px" viewBox="0 0 256 174" version="1.1" xmlns="http://www.w3.org/2000/svg" xmlns:xlink="http://www.w3.org/1999/xlink">
    <!-- Generator: Sketch 3.7.2 (28276) - http://www.bohemiancoding.com/sketch -->
    <title>sneaker</title>
    <desc>Created with Sketch.</desc>
    <defs>
        <polygon id="path-1" points="0 0.0456572732 0 174 256 174 256 0.0456572732"></polygon>
    </defs>
    <g id="Page-1" stroke="none" stroke-width="1" fill="none" fill-rule="evenodd">
        <g id="sneaker">
            <mask id="mask-2" fill="white">
                <use xlink:href="#path-1"></use>
            </mask>
            <g id="Clip-2"></g>
            <polygon id="Fill-1" fill="#E5E5E5" mask="url(#mask-2)" points="0 142 256 142 256 174 0 174"></polygon>
            <polygon id="Fill-3" fill="#3E4347" mask="url(#mask-2)" points="0 156 256 156 256 160 0 160"></polygon>
            <polygon id="Fill-4" fill="#9F9E9C" mask="url(#mask-2)" points="0 170 256 170 256 174 0 174"></polygon>
            <path d="M256,142 L208,142 L208,118 C234.508,118 256,128.744 256,142" id="Fill-5" fill="#E5E5E5" mask="url(#mask-2)"></path>
            <polygon id="Fill-6" fill="#E5E5E5" mask="url(#mask-2)" points="4 146 24 146 24 170 4 170"></polygon>
            <polygon id="Fill-7" fill="#9F9E9C" mask="url(#mask-2)" points="20 142 24 142 24 174 20 174"></polygon>
            <polygon id="Fill-8" fill="#3E4347" mask="url(#mask-2)" points="0 142 256 142 256 146 0 146"></polygon>
            <path d="M208,142 L208,118 C208,118 147.36,92.664 131.16,78.352 C103.996,54.352 97.324,9.02 97.66,2.352 C97.912,-2.68 81.58,1.632 77.66,4.788 C75.896,6.208 74.744,11.084 74.66,13.352 C74.036,30.168 92.16,78.352 92.16,78.352 L207.996,142" id="Fill-9" fill="#3E4347" mask="url(#mask-2)"></path>
            <path d="M187.916,115.08 C167.164,105.736 150.792,103.66 133.664,94.328 C96.328,74 81.264,27.308 78.164,25.848 C67.22,20.62 47.328,35.016 30.336004,34.016 C14.012004,33.06 -1.70530257e-13,21.02 -1.70530257e-13,21.02 C-1.70530257e-13,21.02 7.496004,45.724 9.688,63.192 C10.624,70.664 11,86.688 4,102.024 C-0.1679988,111.148 -1.70530257e-13,142 -1.70530257e-13,142 L208,142 C208,142 205.916,123.212 187.92,115.1" id="Fill-10" fill="#4F5559" mask="url(#mask-2)"></path>
            <path d="M78.112,41.692 C78.112,45.23104 75.24304,48.1 71.704,48.1 C68.16496,48.1 65.296,45.23104 65.296,41.692 C65.296,38.15296 68.16496,35.284 71.704,35.284 C75.24304,35.284 78.112,38.15296 78.112,41.692 L78.112,41.692 Z" id="Stroke-11" stroke="#F5F5F5" stroke-width="4" mask="url(#mask-2)"></path>
            <path d="M89.084,62.2 C89.084,65.73904 86.21504,68.608 82.676,68.608 C79.13696,68.608 76.268,65.73904 76.268,62.2 C76.268,58.66096 79.13696,55.792 82.676,55.792 C86.21504,55.792 89.084,58.66096 89.084,62.2 L89.084,62.2 Z" id="Stroke-12" stroke="#F5F5F5" stroke-width="4" mask="url(#mask-2)"></path>
            <path d="M104,81.508 C104,85.04704 101.13104,87.916 97.592,87.916 C94.05296,87.916 91.184,85.04704 91.184,81.508 C91.184,77.96896 94.05296,75.1 97.592,75.1 C101.13104,75.1 104,77.96896 104,81.508 L104,81.508 Z" id="Stroke-13" stroke="#F5F5F5" stroke-width="4" mask="url(#mask-2)"></path>
            <path d="M121.58,96.908 C121.58,100.44704 118.71104,103.316 115.172,103.316 C111.63296,103.316 108.764,100.44704 108.764,96.908 C108.764,93.36896 111.63296,90.5 115.172,90.5 C118.71104,90.5 121.58,93.36896 121.58,96.908 L121.58,96.908 Z" id="Stroke-14" stroke="#F5F5F5" stroke-width="4" mask="url(#mask-2)"></path>
            <path d="M140.812,109.72 C140.812,113.25904 137.94304,116.128 134.404,116.128 C130.86496,116.128 127.996,113.25904 127.996,109.72 C127.996,106.18096 130.86496,103.312 134.404,103.312 C137.94304,103.312 140.812,106.18096 140.812,109.72 L140.812,109.72 Z" id="Stroke-15" stroke="#F5F5F5" stroke-width="4" mask="url(#mask-2)"></path>
            <path d="M162.368,118 C162.368,121.53904 159.49904,124.408 155.96,124.408 C152.42096,124.408 149.552,121.53904 149.552,118 C149.552,114.46096 152.42096,111.592 155.96,111.592 C159.49904,111.592 162.368,114.46096 162.368,118 L162.368,118 Z" id="Stroke-16" stroke="#F5F5F5" stroke-width="4" mask="url(#mask-2)"></path>
            <path d="M184.048,122.52 C184.048,126.05904 181.17904,128.928 177.64,128.928 C174.10096,128.928 171.232,126.05904 171.232,122.52 C171.232,118.98096 174.10096,116.112 177.64,116.112 C181.17904,116.112 184.048,118.98096 184.048,122.52 L184.048,122.52 Z" id="Stroke-17" stroke="#F5F5F5" stroke-width="4" mask="url(#mask-2)"></path>
            <path d="M71.704,41.692 C71.704,41.692 104.232,32.356 105.16,21.02" id="Stroke-18" stroke="#4F5559" stroke-width="8" mask="url(#mask-2)"></path>
            <path d="M82.676,61.836 C82.676,61.836 111.672,46.356 110.276,35.072" id="Stroke-19" stroke="#4F5559" stroke-width="8" mask="url(#mask-2)"></path>
            <path d="M97.592,81.508 C97.592,81.508 119.908,63.672 116.844,52.736" id="Stroke-20" stroke="#4F5559" stroke-width="8" mask="url(#mask-2)"></path>
            <path d="M115.172,97.344 C115.172,97.344 131.624,77.556 126.736,67.304" id="Stroke-21" stroke="#4F5559" stroke-width="8" mask="url(#mask-2)"></path>
            <path d="M134.408,110.64 C134.408,110.64 147.184,90.676 141.332,80.944" id="Stroke-22" stroke="#4F5559" stroke-width="8" mask="url(#mask-2)"></path>
            <path d="M155.96,118.24 C155.96,118.24 164.876,99.048 158.188,89.88" id="Stroke-23" stroke="#4F5559" stroke-width="8" mask="url(#mask-2)"></path>
            <path d="M177.64,122.64 C177.64,122.64 181.44,107.576 174.604,98.52" id="Stroke-24" stroke="#4F5559" stroke-width="8" mask="url(#mask-2)"></path>
            <path d="M4,28.604 C4,28.604 4.668,28.916 5.804,29.428" id="Stroke-25" stroke="#4F5559" stroke-width="2" mask="url(#mask-2)"></path>
            <path d="M9.432,31.032 C15.68,33.736 25.74,37.8 30.912,38.356 C42.256,39.572 61.884,27.896 73.164,29.604 C78.112,30.356 106.516,86.668 126.664,95.772 C148.416,105.6 180.524,113.116 193.916,122.528 C198.304,125.612 203.372,133.772 206.076,138.488" id="Stroke-26" stroke="#CCCCCC" stroke-width="2" stroke-dasharray="3.978399991989136,3.978399991989136" mask="url(#mask-2)"></path>
            <path d="M207.06,140.248 C207.656,141.336 208,142 208,142 C208,142 207.3,141.892 206.04,141.684" id="Stroke-27" stroke="#CCCCCC" stroke-width="2" mask="url(#mask-2)"></path>
            <path d="M202.12,141.044 C187.244,138.572 148.256,131.784 134.392,126.352 C119.64,120.584 96.464,104.62 86.152,92.6 C76.224,81.032 57.672,45.44 51.836,34.044" id="Stroke-28" stroke="#CCCCCC" stroke-width="2" stroke-dasharray="3.970799922943115,3.970799922943115" mask="url(#mask-2)"></path>
            <path d="M50.94,32.268 C50.36,31.128 50.04,30.496 50.04,30.496" id="Stroke-29" stroke="#CCCCCC" stroke-width="2" mask="url(#mask-2)"></path>
        </g>
    </g>
</svg>